<svg width="64" height="64" viewBox="0 0 64 64" fill="none" xmlns="http://www.w3.org/2000/svg">
<path d="M44.0046 10.5876C42.1658 8.94129 40.0082 7.69065 37.6656 6.91342C35.3231 6.1362 32.8457 5.84899 30.3875 6.06965C27.9293 6.2903 25.5427 7.01411 23.376 8.1961C21.2093 9.37808 19.3089 10.993 17.7927 12.9405C16.2765 14.888 15.177 17.1265 14.5625 19.5169C13.948 21.9073 13.8316 24.3985 14.2206 26.8357C14.6095 29.273 15.4955 31.6043 16.8235 33.6846C18.1515 35.765 19.8931 37.5501 21.9402 38.929C22.049 39.0024 22.1712 39.0538 22.2999 39.08C22.4285 39.1063 22.5611 39.1069 22.69 39.0819C22.8189 39.0569 22.9416 39.0068 23.0511 38.9344C23.1607 38.862 23.2549 38.7687 23.3284 38.6599C23.4018 38.5511 23.4532 38.4289 23.4794 38.3002C23.5057 38.1716 23.5063 38.039 23.4813 37.9101C23.4563 37.7812 23.4062 37.6585 23.3338 37.5489C23.2614 37.4394 23.1681 37.3452 23.0593 37.2717C20.7686 35.7288 18.9162 33.6191 17.6825 31.1481C16.4487 28.6771 15.8756 25.9288 16.0188 23.1706C16.162 20.4124 17.0167 17.7383 18.4997 15.4083C19.9827 13.0783 22.0436 11.1719 24.4817 9.87447C26.9199 8.57704 29.6524 7.93279 32.4134 8.00441C35.1744 8.07603 37.8698 8.86108 40.2375 10.2832C42.6051 11.7053 44.5644 13.716 45.9246 16.1197C47.2848 18.5234 47.9997 21.2383 47.9997 24.0002C47.9997 29.3825 45.7204 33.9875 41.7463 36.6345C39.237 38.3059 36.3625 38.9758 33.9021 38.5236C35.5866 36.9099 38.9621 33.0481 38.9997 28.0076C39.0237 24.8166 37.7346 22.2258 35.4636 20.8997C34.4335 20.307 33.2655 19.9959 32.0771 19.9976C30.8887 19.9992 29.7216 20.3135 28.6931 20.9089C26.3459 22.2561 24.9997 24.8411 24.9997 28.0002C24.9997 33.5281 28.404 37.2707 30.2678 38.9055L27.3596 41.2322L21.3596 46.2322C21.2017 46.3637 21.0881 46.5407 21.0344 46.7391C20.9807 46.9374 20.9894 47.1475 21.0594 47.3408C21.1293 47.534 21.2572 47.701 21.4254 47.819C21.5937 47.937 21.7942 48.0003 21.9997 48.0002H38.4997C38.6967 48.0002 38.8918 48.039 39.0738 48.1143C39.2558 48.1897 39.4212 48.3001 39.5605 48.4394C39.6998 48.5787 39.8103 48.744 39.8857 48.926C39.9611 49.108 39.9999 49.303 40 49.5C40 49.697 39.9612 49.892 39.8859 50.074C39.8105 50.256 39.7001 50.4214 39.5608 50.5607C39.4216 50.7 39.2562 50.8106 39.0742 50.886C38.8923 50.9614 38.6972 51.0002 38.5002 51.0002H29.4997C28.5715 51.0002 27.6812 51.369 27.0249 52.0254C26.3685 52.6817 25.9997 53.572 25.9997 54.5002C25.9997 55.4285 26.3685 56.3187 27.0249 56.9751C27.6812 57.6315 28.5715 58.0002 29.4997 58.0002H35.4997C35.7649 58.0002 36.0193 57.8949 36.2068 57.7073C36.3944 57.5198 36.4997 57.2655 36.4997 57.0002C36.4997 56.735 36.3944 56.4807 36.2068 56.2931C36.0193 56.1056 35.7649 56.0002 35.4997 56.0002H29.4997C29.1019 56.0002 28.7204 55.8422 28.4391 55.5609C28.1578 55.2796 27.9997 54.8981 27.9997 54.5002C27.9997 54.1024 28.1578 53.7209 28.4391 53.4396C28.7204 53.1583 29.1019 53.0002 29.4997 53.0002H38.5002C39.4285 53.0002 40.3187 52.6314 40.975 51.9749C41.6314 51.3185 42 50.4283 42 49.5C41.9999 48.5717 41.6311 47.6815 40.9747 47.0252C40.3183 46.3689 39.428 46.0002 38.4997 46.0002H24.7614L28.6242 42.781L32.0061 40.0759C35.2824 41.2654 39.3967 40.6013 42.8547 38.2991C47.3957 35.2751 49.9997 30.0632 49.9997 24.0002C49.998 21.469 49.4633 18.9665 48.4303 16.6556C47.3974 14.3447 45.8895 12.2772 44.0046 10.5876V10.5876ZM32.3464 37.2419L31.8625 37.6291C30.3723 36.3733 26.9997 32.9802 26.9997 28.0002C26.9997 25.5412 27.9548 23.6389 29.6887 22.6433C30.4239 22.2205 31.2571 21.9977 32.1052 21.9968C32.9305 21.9948 33.7416 22.2122 34.4553 22.6267C36.115 23.5959 37.0183 25.5017 36.9997 27.9929C36.9665 32.4587 33.7561 35.9319 32.3464 37.2419Z" fill="url(#paint0_linear_2628_1070)"/>
<defs>
<linearGradient id="paint0_linear_2628_1070" x1="31.9977" y1="5.99756" x2="31.9977" y2="58.0002" gradientUnits="userSpaceOnUse">
<stop stop-color="#00BCF5"/>
<stop offset="1" stop-color="#A875FC"/>
</linearGradient>
</defs>
</svg>
