<svg width="64" height="64" viewBox="0 0 64 64" fill="none" xmlns="http://www.w3.org/2000/svg">
<path d="M49.2225 36.1695C47.6641 35.2674 45.9556 34.6542 44.1793 34.3594L43.6676 34.2661C43.4066 34.2186 43.1375 34.2767 42.9194 34.4276C42.7012 34.5785 42.552 34.8099 42.5045 35.0708C42.457 35.3318 42.515 35.6009 42.6659 35.819C42.8168 36.0372 43.0482 36.1864 43.3092 36.2339L43.8368 36.3301C45.3815 36.5854 46.8673 37.1179 48.2225 37.9019C51.3685 39.7178 52.6349 41.6919 51.6969 43.3169C50.7428 44.9688 48.3226 44.8877 45.2225 43.0977C43.7411 42.2479 42.443 41.1128 41.4032 39.7579C40.3635 38.4031 39.6029 36.8554 39.1654 35.2046C38.9282 34.1597 38.8156 33.0904 38.8299 32.0191C38.8306 31.2069 38.887 30.3958 38.9986 29.5913C42.5075 30.2495 46.1361 29.6244 49.2225 27.8301C55.4459 24.2368 54.026 20.6602 53.4425 19.6494C52.2276 17.5459 49.1681 16.3149 44.2225 19.1694C41.1249 20.9463 38.769 23.7772 37.5843 27.146C36.8718 26.8616 36.1806 26.5266 35.5159 26.1436C34.7855 25.7201 34.0838 25.2489 33.4154 24.7329C35.7383 22.0232 37.0105 18.5691 37.0001 15C37.0001 9.09525 34.3067 7.00003 32.0001 7.00003C29.6934 7.00003 27.0001 9.09525 27.0001 15C26.9897 18.5692 28.2619 22.0233 30.585 24.7329C29.9266 25.2417 29.2355 25.7068 28.5162 26.125C27.8414 26.515 27.1396 26.8562 26.4161 27.146C25.2314 23.7771 22.8754 20.9462 19.7777 19.1695C14.8465 16.3233 11.7865 17.5664 10.567 19.6787C10.2163 20.2881 10.0221 20.9749 10.0018 21.6777C9.98139 22.3805 10.1355 23.0774 10.4503 23.7061C11.1395 25.1826 12.5955 26.5699 14.7777 27.8301C17.8641 29.6245 21.4928 30.2496 25.0018 29.5913C25.1126 30.3832 25.1688 31.1818 25.1702 31.9815C25.1697 32.7934 25.1134 33.6044 25.0018 34.4087C21.4929 33.7514 17.8646 34.3763 14.7777 36.1694C12.5953 37.4297 11.139 38.8159 10.4491 40.2896C10.1336 40.9177 9.97884 41.6143 9.99878 42.3169C10.0187 43.0195 10.2127 43.7062 10.5633 44.3154C10.9187 44.9268 11.4175 45.4426 12.0167 45.8182C12.6158 46.1938 13.2974 46.4181 14.0025 46.4717C15.6554 46.6411 17.5972 46.0889 19.7777 44.8301C22.8755 43.0536 25.2315 40.2229 26.4161 36.854C27.1286 37.1383 27.8197 37.4733 28.4842 37.8565C29.2147 38.2801 29.9165 38.7513 30.585 39.2671C28.2619 41.9768 26.9897 45.4309 27.0001 49C27.0001 54.9048 29.6934 57 32.0001 57C34.3067 57 37.0001 54.9048 37.0001 49C37.0105 45.4309 35.7383 41.9769 33.4154 39.2671C33.6129 39.1084 33.8309 38.9459 34.0721 38.7779C34.2897 38.6262 34.438 38.3943 34.4846 38.1331C34.5312 37.872 34.4721 37.6031 34.3204 37.3855C34.1687 37.168 33.9368 37.0196 33.6757 36.973C33.4145 36.9265 33.1456 36.9855 32.9281 37.1373C32.5843 37.377 32.2767 37.6104 32.0003 37.8414C31.2065 37.206 30.3652 36.6323 29.484 36.125C28.6712 35.6545 27.8216 35.2507 26.9435 34.9176C27.0951 33.9462 27.1708 32.9646 27.1698 31.9815C27.1697 31.0108 27.094 30.0416 26.9435 29.0826C27.8329 28.7445 28.6932 28.3344 29.516 27.8565C30.386 27.3545 31.2165 26.787 32.0003 26.1588C32.7941 26.794 33.6352 27.3678 34.5162 27.8751C35.329 28.3455 36.1787 28.7494 37.0567 29.0826C36.9054 30.0541 36.8298 31.0359 36.8304 32.0191C36.8162 33.2651 36.9516 34.5084 37.2337 35.7222C37.7386 37.627 38.6162 39.4128 39.8158 40.9762C41.0154 42.5396 42.5132 43.8495 44.2225 44.8301C47.4527 46.6944 51.5684 47.5396 53.4288 44.3169C54.0096 43.3106 55.4229 39.7495 49.2225 36.1695ZM45.2225 20.9019C48.338 19.1031 50.7625 19.0088 51.7105 20.6494C52.6417 22.2627 51.3377 24.2993 48.2225 26.0977C45.5971 27.6225 42.5185 28.1736 39.5272 27.6543C40.5718 24.8034 42.5886 22.4123 45.2225 20.9019V20.9019ZM15.7777 26.0977C13.9832 25.062 12.7677 23.9424 12.2625 22.8604C12.0831 22.5235 11.9923 22.1465 11.9987 21.7649C12.0051 21.3832 12.1084 21.0095 12.2989 20.6787C12.5334 20.2895 12.8713 19.9729 13.275 19.7642C13.6787 19.5555 14.1323 19.4629 14.5855 19.4966C15.7225 19.4966 17.1573 19.9663 18.7777 20.9019C21.4117 22.4123 23.4286 24.8034 24.4732 27.6543C21.4818 28.1748 18.4027 27.6236 15.7777 26.0977V26.0977ZM18.7777 43.0977C16.995 44.1275 15.4154 44.6065 14.2069 44.482C13.8163 44.4621 13.4369 44.345 13.103 44.1413C12.7692 43.9376 12.4915 43.6537 12.2952 43.3155C12.105 42.9853 12.0019 42.6121 11.9958 42.2311C11.9897 41.8501 12.0807 41.4738 12.2603 41.1377C12.7662 40.0572 13.9825 38.938 15.7777 37.9019C18.4029 36.3764 21.4819 35.8254 24.4732 36.3457C23.4287 39.1967 21.4118 41.5876 18.7777 43.0977V43.0977ZM35.0001 49C35.0001 53.4287 33.3841 55 32.0001 55C30.6161 55 29.0001 53.4287 29.0001 49C28.9914 45.9638 30.0537 43.0217 32.0001 40.6914C33.9466 43.0217 35.0089 45.9638 35.0001 49V49ZM32.0001 23.3086C30.0537 20.9783 28.9914 18.0363 29.0001 15C29.0001 10.5713 30.6161 9.00003 32.0001 9.00003C33.3841 9.00003 35.0001 10.5713 35.0001 15C35.0089 18.0363 33.9466 20.9784 32.0001 23.3086V23.3086Z" fill="url(#paint0_linear_2628_1057)"/>
<defs>
<linearGradient id="paint0_linear_2628_1057" x1="32.0009" y1="7.00003" x2="32.0009" y2="57" gradientUnits="userSpaceOnUse">
<stop stop-color="#00BCF5"/>
<stop offset="1" stop-color="#A875FC"/>
</linearGradient>
</defs>
</svg>
