<svg width="64" height="64" viewBox="0 0 64 64" fill="none" xmlns="http://www.w3.org/2000/svg">
<path d="M46.9971 22.0002H46C45.7348 22.0002 45.4804 22.1056 45.2929 22.2931C45.1054 22.4807 45 22.735 45 23.0002C45 23.2655 45.1054 23.5198 45.2929 23.7074C45.4804 23.8949 45.7348 24.0002 46 24.0002H46.9971C47.7928 24.0008 48.5559 24.3169 49.1189 24.8793C49.6818 25.4417 49.9987 26.2045 50 27.0002V53.0002C49.9991 53.7956 49.6828 54.5582 49.1204 55.1206C48.5579 55.683 47.7954 55.9994 47 56.0002H46C42.6973 56.0002 38.4268 54.2166 34.855 51.3459C34.3374 50.9299 33.8501 50.5042 33.3931 50.0686C35.7168 47.4226 36.999 44.6008 37 42.0002C37.0001 40.6742 36.4733 39.4024 35.5357 38.4646C34.5981 37.5269 33.3263 37.0001 32.0003 37C30.6742 36.9999 29.4024 37.5267 28.4646 38.4643C27.5269 39.4019 27.0001 40.6737 27 41.9997C26.999 44.5964 28.2813 47.4158 30.6069 50.0613C27.0112 53.4617 21.9009 56.0002 18 56.0002H17C16.2046 55.9994 15.4421 55.683 14.8796 55.1206C14.3172 54.5582 14.0009 53.7956 14 53.0002V27.0002C14.0009 26.2049 14.3172 25.4423 14.8796 24.8799C15.4421 24.3175 16.2046 24.0011 17 24.0002H24.0166C24.0176 23.9997 24.0186 23.9997 24.0215 24.0002H40C40.2653 24.0002 40.5197 23.8947 40.7072 23.7071C40.8947 23.5195 41.0001 23.265 41 22.9997L40.998 14.9939C40.9977 12.6072 40.0493 10.3184 38.3614 8.63098C36.6735 6.94356 34.3845 5.99577 31.9978 5.99609C29.6111 5.99642 27.3223 6.94484 25.6349 8.63271C23.9475 10.3206 22.9997 12.6097 23 14.9963L23.0166 22.0002H17C15.6744 22.0018 14.4035 22.5291 13.4662 23.4664C12.5288 24.4038 12.0016 25.6746 12 27.0002V53.0002C12.0016 54.3259 12.5288 55.5967 13.4662 56.5341C14.4035 57.4714 15.6744 57.9987 17 58.0002H18C21.8061 58.0002 26.4453 56.095 30.4097 52.9041C30.9741 52.45 31.5057 51.9854 32.0044 51.5105C32.5034 51.9846 33.036 52.4493 33.6021 52.9045C37.5122 56.0476 42.2632 58.0002 46 58.0002H47C48.3256 57.9987 49.5965 57.4714 50.5338 56.5341C51.4712 55.5967 51.9984 54.3259 52 53.0002V27.0002C51.9981 25.6742 51.4703 24.4031 50.5324 23.4658C49.5945 22.5284 48.3231 22.0014 46.9971 22.0002ZM31.999 8.00025C33.854 8.00163 35.6327 8.7388 36.9448 10.05C38.257 11.3612 38.9954 13.1394 38.998 14.9944L38.9995 22.0002H25.0166L25 14.9939C25.0028 13.139 25.7412 11.3609 27.0534 10.0498C28.3655 8.73868 30.1441 8.00159 31.999 8.00025ZM32.001 48.6091C30.082 46.3777 28.999 44.0432 29 42.0002C29 41.6063 29.0775 41.2162 29.2283 40.8522C29.379 40.4882 29.6 40.1575 29.8785 39.8789C30.4411 39.3162 31.2041 39.0001 31.9998 39C32.7954 38.9999 33.5585 39.3159 34.1211 39.8785C34.6838 40.4411 34.9999 41.2041 35 41.9997C34.999 44.1965 33.8208 46.5095 32.001 48.6091Z" fill="url(#paint0_linear_2628_1083)"/>
<defs>
<linearGradient id="paint0_linear_2628_1083" x1="32" y1="5.99609" x2="32" y2="58.0002" gradientUnits="userSpaceOnUse">
<stop stop-color="#00BCF5"/>
<stop offset="1" stop-color="#A875FC"/>
</linearGradient>
</defs>
</svg>
