<svg width="65" height="32" viewBox="0 0 65 32" fill="none" xmlns="http://www.w3.org/2000/svg">
<mask id="mask0_5_25557" style="mask-type:alpha" maskUnits="userSpaceOnUse" x="0" y="0" width="65" height="32">
<rect width="65" height="32" fill="#C4C4C4"/>
</mask>
<g mask="url(#mask0_5_25557)">
<path d="M43.8751 23.3301C43.7657 23.2821 42.9391 22.8128 41.7111 22.8128C40.0485 22.8128 38.8965 23.9141 38.8965 25.4007C38.8965 26.8447 39.9978 27.99 41.7111 27.99C42.9204 27.99 43.7617 27.5353 43.8751 27.4753V30.0833C43.5511 30.1686 42.6711 30.4272 41.5311 30.4272C38.6352 30.4272 36.1006 28.5313 36.1006 25.4007C36.1006 22.5048 38.3965 20.3808 41.5311 20.3808C42.7351 20.3808 43.6284 20.6608 43.8751 20.7302V23.3301Z" fill="#88898D"/>
<path d="M17.045 23.3301C16.941 23.2821 16.1157 22.8128 14.8864 22.8128C13.2198 22.8128 12.0678 23.9141 12.0678 25.4007C12.0678 26.8447 13.1678 27.99 14.8864 27.99C16.0944 27.99 16.9357 27.5353 17.045 27.4753V30.0833C16.725 30.1686 15.8464 30.4272 14.6971 30.4272C11.8078 30.4272 9.27722 28.5313 9.27722 25.4007C9.27722 22.5048 11.5705 20.3808 14.6971 20.3808C15.9144 20.3808 16.801 20.6608 17.045 20.7302V23.3301Z" fill="#88898D"/>
<path d="M51.9561 22.8514C50.4321 22.8514 49.3015 23.9927 49.3015 25.4007C49.3015 26.8153 50.4321 27.9553 51.9561 27.9553C53.4814 27.9553 54.616 26.8153 54.616 25.4007C54.616 23.9927 53.4814 22.8514 51.9561 22.8514ZM57.3373 25.4007C57.3373 28.1766 55.0893 30.4272 51.9561 30.4272C48.8255 30.4272 46.5815 28.1766 46.5815 25.4007C46.5815 22.6314 48.8255 20.3808 51.9561 20.3808C55.0893 20.3808 57.3373 22.6314 57.3373 25.4007Z" fill="#88898D"/>
<path d="M32.894 22.7568C32.8593 22.7461 31.7753 22.4621 30.886 22.4621C29.8567 22.4621 29.2967 22.7888 29.2967 23.2594C29.2967 23.8487 30.05 24.0527 30.4714 24.1834L31.1847 24.3941C32.8513 24.9007 33.6126 25.99 33.6126 27.1713C33.6126 29.6086 31.3607 30.4272 29.3954 30.4272C28.0261 30.4272 26.7528 30.1859 26.6208 30.1633V27.93C26.8488 27.9833 27.9247 28.2913 29.0474 28.2913C30.3234 28.2913 30.9153 27.9353 30.9153 27.3807C30.9153 26.8913 30.4074 26.6113 29.766 26.418C29.6114 26.37 29.3807 26.2993 29.2154 26.25C27.7861 25.818 26.5941 25.0167 26.5941 23.4141C26.5941 21.5955 28.0194 20.3808 30.3914 20.3808C31.6407 20.3808 32.8193 20.6662 32.894 20.6862V22.7568Z" fill="#88898D"/>
<path d="M6.54927 10.1278C6.54927 9.46114 5.97862 8.91715 5.27197 8.91715C4.57599 8.91715 4 9.46114 4 10.1278V12.6731C4 13.345 4.57599 13.8877 5.27197 13.8877C5.97862 13.8877 6.54927 13.345 6.54927 12.6731V10.1278Z" fill="#88898D"/>
<path d="M13.5584 6.78386C13.5584 6.11721 12.9878 5.57589 12.2864 5.57589C11.5798 5.57589 11.0065 6.11721 11.0065 6.78386V12.6717C11.0065 13.345 11.5798 13.8864 12.2864 13.8864C12.9878 13.8864 13.5584 13.345 13.5584 12.6717V6.78386Z" fill="#88898D"/>
<path d="M20.5662 2.21332C20.5662 1.54134 19.9982 1.00002 19.2929 1.00002C18.5916 1.00002 18.0156 1.54134 18.0156 2.21332V15.0943C18.0156 15.765 18.5916 16.3103 19.2929 16.3103C19.9982 16.3103 20.5662 15.765 20.5662 15.0943V2.21332Z" fill="#88898D"/>
<path d="M27.5767 6.78386C27.5767 6.11721 27.0061 5.57589 26.3061 5.57589C25.5995 5.57589 25.0288 6.11721 25.0288 6.78386V12.6717C25.0288 13.345 25.5995 13.8864 26.3061 13.8864C27.0061 13.8864 27.5767 13.345 27.5767 12.6717V6.78386Z" fill="#88898D"/>
<path d="M34.5792 10.1278C34.5792 9.46114 34.0126 8.91715 33.3112 8.91715C32.6073 8.91715 32.0339 9.46114 32.0339 10.1278V12.6731C32.0339 13.345 32.6073 13.8877 33.3112 13.8877C34.0126 13.8877 34.5792 13.345 34.5792 12.6731V10.1278Z" fill="#88898D"/>
<path d="M41.5937 6.78386C41.5937 6.11721 41.0244 5.57589 40.3204 5.57589C39.6191 5.57589 39.0498 6.11721 39.0498 6.78386V12.6717C39.0498 13.345 39.6191 13.8864 40.3204 13.8864C41.0244 13.8864 41.5937 13.345 41.5937 12.6717V6.78386Z" fill="#88898D"/>
<path d="M48.6042 2.21332C48.6042 1.54134 48.0389 1.00002 47.3296 1.00002C46.6336 1.00002 46.059 1.54134 46.059 2.21332V15.0943C46.059 15.765 46.6336 16.3103 47.3296 16.3103C48.0389 16.3103 48.6042 15.765 48.6042 15.0943V2.21332Z" fill="#88898D"/>
<path d="M55.6201 6.78386C55.6201 6.11721 55.0468 5.57589 54.3268 5.57589C53.6295 5.57589 53.0548 6.11721 53.0548 6.78386V12.6717C53.0548 13.345 53.6295 13.8864 54.3268 13.8864C55.0468 13.8864 55.6201 13.345 55.6201 12.6717V6.78386Z" fill="#88898D"/>
<path d="M62.6172 10.1278C62.6172 9.46114 62.0438 8.91715 61.3425 8.91715C60.6385 8.91715 60.0706 9.46114 60.0706 10.1278V12.6731C60.0706 13.345 60.6385 13.8877 61.3425 13.8877C62.0438 13.8877 62.6172 13.345 62.6172 12.6731V10.1278Z" fill="#88898D"/>
<path d="M23.1502 30.2552H20.5756V20.5542H23.1502V30.2552Z" fill="#88898D"/>
</g>
</svg>
